<?xml version="1.0" encoding="UTF-8"?>
<svg width="16px" height="16px" viewBox="0 0 24 24" version="1.1" xmlns="http://www.w3.org/2000/svg" xmlns:xlink="http://www.w3.org/1999/xlink">
    <title>close</title>
    <g id="close" stroke="none" stroke-width="1" fill="none" fill-rule="evenodd">
        <path d="M3.03216991,3.03141991 C3.32506313,2.7385267 3.79993687,2.7385267 4.09283009,3.03141991 L4.09283009,3.03141991 L11.9995,10.93775 L19.9071699,3.03141991 C20.1734365,2.76515335 20.5901002,2.7409473 20.8837117,2.95880176 L20.9678301,3.03141991 C21.2607233,3.32431313 21.2607233,3.79918687 20.9678301,4.09208009 L20.9678301,4.09208009 L13.0605,11.99875 L20.9678301,19.9064199 C21.2340966,20.1726865 21.2583027,20.5893502 21.0404482,20.8829617 L20.9678301,20.9670801 C20.6749369,21.2599733 20.2000631,21.2599733 19.9071699,20.9670801 L19.9071699,20.9670801 L11.9995,13.05975 L4.09283009,20.9670801 C3.82656352,21.2333466 3.40989984,21.2575527 3.11628835,21.0396982 L3.03216991,20.9670801 C2.7392767,20.6741869 2.7392767,20.1993131 3.03216991,19.9064199 L3.03216991,19.9064199 L10.9385,11.99875 L3.03216991,4.09208009 C2.76590335,3.82581352 2.7416973,3.40914984 2.95955176,3.11553835 Z" fill="#000000"></path>
    </g>
</svg>